<svg width="17" height="16" viewBox="0 0 17 16" fill="none" xmlns="http://www.w3.org/2000/svg">
<g clip-path="url(#clip0_8608_1850)">
<path d="M4.99863 11.3324H12.2181C12.8514 11.3324 13.1681 11.3324 13.4261 11.218C13.6537 11.1171 13.8484 10.9546 13.9884 10.7488C14.1471 10.5153 14.2037 10.2038 14.317 9.58069L15.2176 4.6278C15.2568 4.41185 15.2765 4.30387 15.2461 4.21956C15.2195 4.14559 15.1676 4.0834 15.0996 4.04399C15.0221 3.99906 14.9123 3.99906 14.6928 3.99906H3.99863M1.99854 1.3324H2.87614C3.03793 1.3324 3.11883 1.3324 3.18425 1.36195C3.24192 1.388 3.29098 1.42992 3.3257 1.48282C3.3651 1.54283 3.37771 1.62274 3.40295 1.78255L5.26079 13.5489C5.28603 13.7087 5.29864 13.7886 5.33804 13.8486C5.37276 13.9015 5.42182 13.9435 5.47948 13.9695C5.54491 13.9991 5.62581 13.9991 5.7876 13.9991H13.3319" stroke="black" stroke-width="1.66"/>
</g>
<defs>
<clipPath id="clip0_8608_1850">
<rect width="16" height="16" fill="white" transform="translate(0.665039 -0.000976562)"/>
</clipPath>
</defs>
</svg>
