<svg width="16" height="17" viewBox="0 0 16 17" fill="none" xmlns="http://www.w3.org/2000/svg">
<path d="M1.61342 8.97543C1.52262 8.83167 1.47723 8.75979 1.45182 8.64892C1.43273 8.56565 1.43273 8.43431 1.45182 8.35104C1.47723 8.24017 1.52262 8.16829 1.61341 8.02453C2.36369 6.83654 4.59693 3.83331 8.00027 3.83331C11.4036 3.83331 13.6369 6.83654 14.3871 8.02453C14.4779 8.16829 14.5233 8.24017 14.5487 8.35104C14.5678 8.43431 14.5678 8.56565 14.5487 8.64892C14.5233 8.75979 14.4779 8.83167 14.3871 8.97543C13.6369 10.1634 11.4036 13.1666 8.00027 13.1666C4.59693 13.1666 2.36369 10.1634 1.61342 8.97543Z" stroke="white"/>
<path d="M8.00027 10.5C9.10484 10.5 10.0003 9.60455 10.0003 8.49998C10.0003 7.39541 9.10484 6.49998 8.00027 6.49998C6.8957 6.49998 6.00027 7.39541 6.00027 8.49998C6.00027 9.60455 6.8957 10.5 8.00027 10.5Z" stroke="white"/>
</svg>
