<svg width="40" height="41" viewBox="0 0 40 41" fill="none" xmlns="http://www.w3.org/2000/svg">
<path d="M40 20.2222C40 9.17533 31.0468 0.222168 20 0.222168C8.95317 0.222168 0 9.17533 0 20.2222C0 30.2066 7.3125 38.48 16.875 39.98V26.0034H11.7968V20.2222H16.875V15.8159C16.875 10.8042 19.8594 8.03467 24.4297 8.03467C26.6172 8.03467 28.9062 8.42529 28.9062 8.42529V13.3472H26.3828C23.8984 13.3472 23.125 14.8902 23.125 16.4722V20.2222H28.6718L27.7852 26.0034H23.125V39.98C32.6875 38.48 40 30.2066 40 20.2222Z" fill="#FCC826"/>
<path d="M27.7852 26.0034L28.6719 20.2222H23.125V16.4722C23.125 14.8902 23.8985 13.3472 26.3829 13.3472H28.9063V8.42529C28.9063 8.42529 26.6172 8.03467 24.4297 8.03467C19.8595 8.03467 16.875 10.8042 16.875 15.8159V20.2222H11.7969V26.0034H16.875V39.98C17.8945 40.1402 18.9375 40.2222 20 40.2222C21.0625 40.2222 22.1055 40.1402 23.125 39.98V26.0034H27.7852Z" fill="black"/>
</svg>
