<svg width="40" height="41" viewBox="0 0 40 41" fill="none" xmlns="http://www.w3.org/2000/svg">
<g clip-path="url(#clip0_8521_661)">
<circle cx="20" cy="20.2222" r="20" fill="#FCC826"/>
<path d="M25.3892 6.88843C29.7695 6.88843 33.3334 10.4524 33.3335 14.8328V25.6111C33.3335 29.9915 29.7696 33.5554 25.3892 33.5554H14.6108C10.2305 33.5553 6.6665 29.9915 6.6665 25.6111V14.8328C6.66658 10.4525 10.2305 6.8885 14.6108 6.88843H25.3892ZM14.6108 9.57104C11.7051 9.57112 9.34919 11.927 9.34912 14.8328V25.6111C9.34912 28.5168 11.7051 30.8727 14.6108 30.8728H25.3892C28.295 30.8728 30.6509 28.5169 30.6509 25.6111V14.8328C30.6508 11.927 28.2949 9.57104 25.3892 9.57104H14.6108ZM20.0005 13.325C23.8033 13.3251 26.897 16.4195 26.897 20.2224C26.8968 24.0251 23.8032 27.1187 20.0005 27.1189C16.1976 27.1189 13.1032 24.0252 13.103 20.2224C13.103 16.4195 16.1975 13.325 20.0005 13.325ZM20.0005 16.0076C17.673 16.0076 15.7856 17.8949 15.7856 20.2224C15.7858 22.5498 17.6731 24.4363 20.0005 24.4363C22.3277 24.4361 24.2142 22.5496 24.2144 20.2224C24.2144 17.895 22.3278 16.0078 20.0005 16.0076ZM26.9106 11.7244C27.8232 11.7245 28.5629 12.4641 28.563 13.3767C28.563 14.2894 27.8233 15.0299 26.9106 15.03C25.9979 15.03 25.2583 14.2894 25.2583 13.3767C25.2584 12.4641 25.998 11.7244 26.9106 11.7244Z" fill="black"/>
</g>
<defs>
<clipPath id="clip0_8521_661">
<rect width="40" height="40" fill="white" transform="translate(0 0.222168)"/>
</clipPath>
</defs>
</svg>
