<svg width="40" height="41" viewBox="0 0 40 41" fill="none" xmlns="http://www.w3.org/2000/svg"><path d="M40 20.222c0-11.047-8.953-20-20-20s-20 8.953-20 20C0 30.207 7.313 38.48 16.875 39.98V26.003h-5.078v-5.78h5.078v-4.407c0-5.012 2.984-7.781 7.555-7.781 2.187 0 4.476.39 4.476.39v4.922h-2.523c-2.485 0-3.258 1.543-3.258 3.125v3.75h5.547l-.887 5.781h-4.66V39.98C32.688 38.48 40 30.207 40 20.222z" fill="#FCC826"/><path d="M27.785 26.003l.887-5.78h-5.547v-3.75c0-1.583.773-3.126 3.258-3.126h2.523V8.425s-2.289-.39-4.476-.39c-4.57 0-7.555 2.77-7.555 7.78v4.407h-5.078v5.781h5.078V39.98c1.02.16 2.063.242 3.125.242 1.063 0 2.105-.082 3.125-.242V26.003h4.66z" fill="#000"/></svg>