<svg width="40" height="41" viewBox="0 0 40 41" fill="none" xmlns="http://www.w3.org/2000/svg"><g clip-path="url(#clip0_8521_661)"><circle cx="20" cy="20.22" r="20" fill="#FCC826"/><path d="M25.39 6.888c4.38 0 7.943 3.564 7.944 7.945V25.61c0 4.38-3.564 7.944-7.945 7.944H14.611c-4.38 0-7.945-3.564-7.945-7.944V14.833c0-4.38 3.564-7.945 7.945-7.945h10.778zM14.61 9.571a5.262 5.262 0 00-5.26 5.262V25.61a5.262 5.262 0 005.26 5.262h10.78a5.262 5.262 0 005.26-5.262V14.833a5.262 5.262 0 00-5.26-5.262H14.61zM20 13.325a6.905 6.905 0 016.897 6.897 6.905 6.905 0 01-6.896 6.897 6.905 6.905 0 01-6.898-6.897A6.906 6.906 0 0120 13.325zm0 2.683a4.215 4.215 0 10.001 8.43 4.215 4.215 0 000-8.43zm6.91-4.284a1.652 1.652 0 110 3.305 1.652 1.652 0 010-3.305z" fill="#000"/></g><defs><clipPath id="clip0_8521_661"><path fill="#fff" transform="translate(0 .222)" d="M0 0h40v40H0z"/></clipPath></defs></svg>